<svg id="svg" version="1.1" xmlns="http://www.w3.org/2000/svg" xmlns:xlink="http://www.w3.org/1999/xlink" width="400" height="200.13236267372602" viewBox="0, 0, 400,200.13236267372602"><g id="svgg"><path id="path0" d="M32.533 10.336 C 21.454 12.057,12.470 20.936,10.394 32.216 C 9.793 35.482,9.793 164.718,10.394 167.984 C 12.471 179.268,21.342 188.052,32.496 189.870 C 35.453 190.352,331.299 190.363,334.184 189.881 C 345.896 187.926,355.083 178.427,356.546 166.760 C 356.835 164.453,356.841 35.798,356.552 33.493 C 356.218 30.825,355.679 28.893,354.506 26.151 C 350.937 17.809,342.979 11.668,333.985 10.318 C 331.022 9.873,35.397 9.890,32.533 10.336 M332.614 15.514 C 341.439 16.688,348.303 22.808,350.803 31.732 L 351.251 33.333 351.251 100.100 L 351.251 166.867 350.803 168.468 C 348.319 177.334,341.746 183.281,332.885 184.678 C 329.842 185.157,36.797 185.145,33.758 184.665 C 29.857 184.049,25.524 182.113,23.154 179.928 C 20.875 177.827,20.405 177.313,19.182 175.576 C 17.382 173.020,16.058 169.778,15.583 166.767 C 15.186 164.244,15.186 35.957,15.583 33.433 C 17.026 24.274,24.714 16.785,33.970 15.524 C 37.045 15.105,329.468 15.095,332.614 15.514 M206.607 39.360 C 193.022 40.532,182.037 46.662,175.701 56.609 C 163.968 75.026,174.422 98.339,197.297 104.770 C 204.190 106.707,209.535 107.819,215.716 108.600 C 228.296 110.189,232.221 111.520,236.197 115.542 C 242.097 121.511,240.045 130.029,231.700 134.213 C 217.797 141.184,200.718 134.535,191.508 118.568 L 190.556 116.917 180.963 116.917 L 171.371 116.917 171.371 136.637 L 171.371 156.356 182.683 156.356 L 193.994 156.356 193.994 151.952 C 193.994 149.530,194.068 147.548,194.159 147.548 C 194.249 147.548,194.967 147.991,195.753 148.533 C 199.939 151.416,203.860 153.640,208.509 155.766 C 218.120 160.162,232.902 159.677,243.143 154.629 C 273.413 139.709,270.231 99.066,237.938 88.132 C 235.565 87.328,228.844 85.873,223.824 85.077 C 222.447 84.858,220.195 84.502,218.819 84.284 C 210.234 82.927,207.822 82.495,206.598 82.094 C 193.257 77.726,195.912 61.502,210.210 60.029 C 221.547 58.860,232.380 64.630,239.212 75.475 C 239.663 76.191,240.127 76.889,240.244 77.027 C 240.488 77.315,256.561 77.396,257.008 77.112 C 257.207 76.985,257.249 73.239,257.208 59.047 L 257.157 41.141 247.247 41.141 L 237.337 41.141 237.283 45.095 C 237.253 47.270,237.181 49.049,237.122 49.049 C 237.064 49.049,236.412 48.562,235.675 47.966 C 228.605 42.254,216.074 38.544,206.607 39.360 M49.341 41.091 C 49.288 41.229,49.269 45.891,49.297 51.451 L 49.349 61.562 53.904 61.615 L 58.458 61.669 58.458 91.954 C 58.458 127.325,58.417 126.605,60.782 132.472 C 72.624 161.846,119.555 169.096,143.713 145.283 C 149.067 140.005,152.265 134.407,154.001 127.275 L 154.451 125.425 154.507 93.544 L 154.562 61.662 159.463 61.662 L 164.364 61.662 164.364 51.250 L 164.364 40.839 142.993 40.890 L 121.622 40.941 121.622 51.251 L 121.622 61.562 125.676 61.616 L 129.730 61.670 129.726 89.944 C 129.723 118.540,129.673 120.709,128.970 122.839 C 123.164 140.441,93.890 142.035,85.147 125.225 C 83.541 122.139,83.576 122.939,83.636 90.140 L 83.688 61.662 87.969 61.662 C 91.687 61.662,92.265 61.620,92.371 61.345 C 92.530 60.931,92.530 41.571,92.371 41.158 C 92.207 40.731,49.504 40.665,49.341 41.091 M271.895 41.113 C 271.731 41.311,271.682 44.146,271.720 51.374 L 271.772 61.361 275.926 61.415 L 280.080 61.470 280.080 98.599 L 280.080 135.728 275.926 135.782 L 271.772 135.836 271.720 145.992 L 271.668 156.148 272.120 156.257 C 272.369 156.317,281.762 156.341,292.993 156.311 L 313.413 156.256 313.465 146.000 L 313.517 135.744 309.361 135.690 L 305.205 135.636 305.150 98.999 C 305.120 78.849,305.145 62.160,305.204 61.912 C 305.313 61.463,305.327 61.461,309.415 61.461 L 313.517 61.461 313.465 51.201 L 313.413 40.941 292.768 40.890 C 275.497 40.847,272.085 40.884,271.895 41.113 " stroke="none" fill="#fbfbfb" fill-rule="evenodd"></path><path id="path1" d="M109.076 9.960 C 149.963 9.988,216.810 9.988,257.624 9.960 C 298.438 9.932,264.985 9.909,183.283 9.909 C 101.582 9.909,68.188 9.932,109.076 9.960 M33.283 10.148 C 33.476 10.198,33.791 10.198,33.984 10.148 C 34.177 10.098,34.019 10.056,33.634 10.056 C 33.248 10.056,33.091 10.098,33.283 10.148 M332.783 10.148 C 332.975 10.198,333.291 10.198,333.483 10.148 C 333.676 10.098,333.519 10.056,333.133 10.056 C 332.748 10.056,332.590 10.098,332.783 10.148 M28.929 11.011 C 28.677 11.119,28.640 11.183,28.829 11.183 C 28.994 11.183,29.309 11.106,29.530 11.011 C 29.782 10.903,29.819 10.839,29.630 10.839 C 29.464 10.839,29.149 10.916,28.929 11.011 M345.145 14.687 C 345.145 14.743,345.415 14.980,345.746 15.215 C 346.076 15.450,346.346 15.598,346.346 15.543 C 346.346 15.488,346.076 15.250,345.746 15.015 C 345.415 14.780,345.145 14.632,345.145 14.687 M109.560 15.365 C 150.163 15.393,216.604 15.393,257.207 15.365 C 297.810 15.338,264.590 15.315,183.383 15.315 C 102.177 15.315,68.956 15.338,109.560 15.365 M334.835 16.016 C 335.055 16.111,335.370 16.188,335.536 16.188 C 335.725 16.188,335.688 16.124,335.435 16.016 C 335.215 15.921,334.900 15.844,334.735 15.844 C 334.545 15.844,334.582 15.908,334.835 16.016 M17.910 17.668 L 16.917 18.719 17.968 17.725 C 18.945 16.802,19.111 16.617,18.961 16.617 C 18.930 16.617,18.457 17.090,17.910 17.668 M22.999 20.436 L 22.122 21.252 23.073 20.494 C 23.596 20.076,24.024 19.709,24.024 19.677 C 24.024 19.523,23.805 19.685,22.999 20.436 M349.163 27.528 C 349.163 27.638,349.292 27.953,349.449 28.228 C 349.607 28.504,349.736 28.639,349.736 28.529 C 349.736 28.418,349.607 28.103,349.449 27.828 C 349.292 27.553,349.163 27.417,349.163 27.528 M9.909 100.100 C 9.909 136.051,9.932 150.758,9.960 132.783 C 9.988 114.807,9.988 85.393,9.960 67.417 C 9.932 49.442,9.909 64.149,9.909 100.100 M356.856 100.100 C 356.856 135.831,356.879 150.448,356.907 132.583 C 356.935 114.717,356.935 85.483,356.907 67.618 C 356.879 49.752,356.856 64.369,356.856 100.100 M15.314 100.100 C 15.314 135.390,15.337 149.827,15.365 132.182 C 15.394 114.537,15.394 85.663,15.365 68.018 C 15.337 50.373,15.314 64.810,15.314 100.100 M206.456 39.377 C 206.649 39.428,206.964 39.428,207.157 39.377 C 207.350 39.327,207.192 39.286,206.807 39.286 C 206.421 39.286,206.264 39.327,206.456 39.377 M211.163 39.381 C 211.413 39.429,211.773 39.427,211.964 39.377 C 212.156 39.327,211.952 39.288,211.512 39.290 C 211.071 39.292,210.914 39.333,211.163 39.381 M215.265 39.778 C 215.458 39.828,215.773 39.828,215.966 39.778 C 216.159 39.727,216.001 39.686,215.616 39.686 C 215.230 39.686,215.073 39.727,215.265 39.778 M121.455 40.974 C 121.270 41.160,121.286 61.416,121.471 61.531 C 121.554 61.582,121.622 56.947,121.622 51.232 C 121.622 45.517,121.614 40.841,121.605 40.841 C 121.596 40.841,121.528 40.901,121.455 40.974 M313.467 51.147 L 313.521 61.453 309.363 61.514 L 305.205 61.574 309.409 61.568 L 313.614 61.562 313.665 51.201 C 313.694 45.503,313.649 40.841,313.565 40.841 C 313.482 40.841,313.438 45.479,313.467 51.147 M182.069 49.099 L 181.481 49.750 182.132 49.162 C 182.490 48.838,182.783 48.546,182.783 48.511 C 182.783 48.356,182.618 48.493,182.069 49.099 M180.268 50.701 L 179.680 51.351 180.330 50.763 C 180.688 50.440,180.981 50.147,180.981 50.113 C 180.981 49.958,180.816 50.094,180.268 50.701 M211.364 60.001 C 211.613 60.049,211.973 60.048,212.164 59.997 C 212.356 59.947,212.152 59.908,211.712 59.910 C 211.271 59.913,211.115 59.954,211.364 60.001 M214.464 59.998 C 214.657 60.048,214.972 60.048,215.165 59.998 C 215.358 59.948,215.200 59.906,214.815 59.906 C 214.429 59.906,214.272 59.948,214.464 59.998 M271.846 61.516 C 271.931 61.601,273.841 61.646,276.090 61.615 L 280.180 61.561 275.936 61.461 C 273.601 61.406,271.761 61.431,271.846 61.516 M129.627 90.290 C 129.627 106.091,129.651 112.555,129.680 104.655 C 129.709 96.754,129.709 83.826,129.680 75.926 C 129.651 68.026,129.627 74.489,129.627 90.290 M154.652 92.492 C 154.652 109.505,154.676 116.464,154.705 107.958 C 154.734 99.452,154.734 85.533,154.705 77.027 C 154.676 68.521,154.652 75.480,154.652 92.492 M305.204 98.749 L 305.205 135.636 309.259 135.642 L 313.314 135.648 309.310 135.588 L 305.306 135.527 305.255 98.695 L 305.204 61.862 305.204 98.749 M231.632 66.729 C 231.632 66.764,231.924 67.057,232.282 67.380 L 232.933 67.968 232.345 67.317 C 231.797 66.711,231.632 66.575,231.632 66.729 M197.862 71.471 C 197.862 72.187,197.898 72.480,197.943 72.122 C 197.987 71.764,197.987 71.179,197.943 70.821 C 197.898 70.463,197.862 70.756,197.862 71.471 M170.825 71.471 C 170.825 71.967,170.864 72.170,170.912 71.922 C 170.960 71.674,170.960 71.269,170.912 71.021 C 170.864 70.773,170.825 70.976,170.825 71.471 M170.825 74.474 C 170.825 74.970,170.864 75.173,170.912 74.925 C 170.960 74.677,170.960 74.272,170.912 74.024 C 170.864 73.776,170.825 73.979,170.825 74.474 M201.001 78.779 C 201.375 79.164,201.725 79.479,201.780 79.479 C 201.835 79.479,201.575 79.164,201.201 78.779 C 200.828 78.393,200.477 78.078,200.422 78.078 C 200.367 78.078,200.627 78.393,201.001 78.779 M234.735 87.287 C 234.955 87.382,235.270 87.459,235.435 87.459 C 235.625 87.459,235.588 87.396,235.335 87.287 C 235.115 87.193,234.800 87.115,234.635 87.115 C 234.445 87.115,234.482 87.179,234.735 87.287 M178.378 93.156 C 178.378 93.190,178.671 93.483,179.029 93.806 L 179.680 94.394 179.092 93.744 C 178.544 93.137,178.378 93.001,178.378 93.156 M181.782 96.597 C 182.155 96.982,182.506 97.297,182.561 97.297 C 182.616 97.297,182.356 96.982,181.982 96.597 C 181.608 96.211,181.258 95.896,181.203 95.896 C 181.148 95.896,181.408 96.211,181.782 96.597 M254.655 98.761 C 254.655 98.796,254.947 99.089,255.305 99.412 L 255.956 100.000 255.368 99.349 C 254.820 98.743,254.655 98.607,254.655 98.761 M256.544 100.967 C 256.852 101.371,257.145 101.702,257.195 101.702 C 257.334 101.702,256.467 100.531,256.211 100.372 C 256.086 100.295,256.236 100.563,256.544 100.967 M259.960 106.106 C 260.131 106.436,260.316 106.707,260.371 106.707 C 260.426 106.707,260.331 106.436,260.160 106.106 C 259.989 105.776,259.805 105.506,259.749 105.506 C 259.694 105.506,259.789 105.776,259.960 106.106 M206.106 107.107 C 206.326 107.202,206.642 107.279,206.807 107.279 C 206.996 107.279,206.959 107.216,206.707 107.107 C 206.486 107.012,206.171 106.935,206.006 106.935 C 205.817 106.935,205.854 106.999,206.106 107.107 M171.220 136.587 L 171.269 156.456 171.321 136.689 L 171.373 116.921 181.032 116.867 L 190.691 116.813 180.931 116.765 L 171.171 116.717 171.220 136.587 M263.910 118.519 C 263.910 118.904,263.952 119.062,264.002 118.869 C 264.052 118.676,264.052 118.361,264.002 118.168 C 263.952 117.975,263.910 118.133,263.910 118.519 M264.142 122.523 C 264.142 124.009,264.174 124.617,264.213 123.874 C 264.251 123.131,264.251 121.914,264.213 121.171 C 264.174 120.428,264.142 121.036,264.142 122.523 M239.508 123.223 C 239.509 124.104,239.544 124.440,239.586 123.969 C 239.629 123.498,239.628 122.777,239.585 122.367 C 239.542 121.957,239.507 122.342,239.508 123.223 M58.505 123.524 C 58.505 123.909,58.546 124.067,58.596 123.874 C 58.647 123.681,58.647 123.366,58.596 123.173 C 58.546 122.980,58.505 123.138,58.505 123.524 M195.796 124.787 C 195.796 124.822,196.089 125.115,196.446 125.438 L 197.097 126.026 196.509 125.375 C 195.961 124.769,195.796 124.633,195.796 124.787 M263.177 130.445 C 263.104 130.738,263.082 131.017,263.129 131.064 C 263.177 131.111,263.275 130.910,263.349 130.616 C 263.423 130.323,263.444 130.044,263.397 129.997 C 263.350 129.950,263.251 130.151,263.177 130.445 M89.289 130.593 C 89.289 130.628,89.582 130.920,89.940 131.244 L 90.591 131.832 90.003 131.181 C 89.454 130.575,89.289 130.439,89.289 130.593 M122.923 131.366 C 122.398 131.842,122.273 132.015,122.623 131.779 C 123.175 131.407,124.093 130.519,123.905 130.539 C 123.860 130.544,123.418 130.916,122.923 131.366 M271.802 135.686 C 271.751 135.768,272.984 135.813,274.543 135.784 C 279.702 135.690,280.234 135.616,276.038 135.575 C 273.760 135.553,271.854 135.603,271.802 135.686 M313.467 146.046 C 313.438 151.717,313.481 156.356,313.564 156.356 C 313.646 156.356,313.714 151.717,313.714 146.046 C 313.714 140.375,313.670 135.736,313.617 135.736 C 313.564 135.736,313.497 140.375,313.467 146.046 M111.311 136.537 C 110.915 136.663,110.894 136.697,111.211 136.697 C 111.431 136.697,111.837 136.625,112.112 136.537 C 112.508 136.410,112.529 136.376,112.212 136.376 C 111.992 136.376,111.587 136.448,111.311 136.537 M221.174 136.878 C 221.423 136.926,221.783 136.924,221.974 136.874 C 222.166 136.824,221.962 136.785,221.522 136.787 C 221.081 136.789,220.924 136.830,221.174 136.878 M148.148 140.140 C 147.913 140.470,147.766 140.741,147.821 140.741 C 147.876 140.741,148.113 140.470,148.348 140.140 C 148.584 139.810,148.731 139.540,148.676 139.540 C 148.621 139.540,148.383 139.810,148.148 140.140 M67.267 143.243 C 67.641 143.629,67.991 143.944,68.047 143.944 C 68.102 143.944,67.841 143.629,67.467 143.243 C 67.094 142.858,66.743 142.543,66.688 142.543 C 66.633 142.543,66.894 142.858,67.267 143.243 M144.945 144.044 C 144.459 144.540,144.106 144.945,144.161 144.945 C 144.216 144.945,144.659 144.540,145.145 144.044 C 145.631 143.549,145.984 143.143,145.929 143.143 C 145.874 143.143,145.431 143.549,144.945 144.044 M142.833 146.196 L 142.042 147.047 142.893 146.256 C 143.684 145.520,143.836 145.345,143.684 145.345 C 143.652 145.345,143.269 145.728,142.833 146.196 M70.871 146.847 C 71.244 147.232,71.595 147.548,71.650 147.548 C 71.705 147.548,71.445 147.232,71.071 146.847 C 70.698 146.461,70.347 146.146,70.292 146.146 C 70.237 146.146,70.497 146.461,70.871 146.847 M253.654 147.247 C 253.167 147.743,252.815 148.148,252.870 148.148 C 252.925 148.148,253.368 147.743,253.854 147.247 C 254.340 146.752,254.693 146.346,254.638 146.346 C 254.583 146.346,254.140 146.752,253.654 147.247 M212.312 157.157 C 212.533 157.252,212.848 157.329,213.013 157.329 C 213.202 157.329,213.165 157.266,212.913 157.157 C 212.693 157.063,212.377 156.985,212.212 156.985 C 212.023 156.985,212.060 157.049,212.312 157.157 M220.070 158.697 C 220.263 158.747,220.578 158.747,220.771 158.697 C 220.963 158.646,220.806 158.605,220.420 158.605 C 220.035 158.605,219.877 158.646,220.070 158.697 M229.079 158.697 C 229.272 158.747,229.587 158.747,229.780 158.697 C 229.972 158.646,229.815 158.605,229.429 158.605 C 229.044 158.605,228.886 158.646,229.079 158.697 M223.083 158.908 C 224.052 158.945,225.583 158.945,226.486 158.908 C 227.389 158.871,226.597 158.840,224.725 158.841 C 222.853 158.841,222.114 158.871,223.083 158.908 M102.352 159.503 C 102.655 159.549,103.151 159.549,103.453 159.503 C 103.756 159.457,103.509 159.419,102.903 159.419 C 102.297 159.419,102.050 159.457,102.352 159.503 M109.663 159.504 C 110.023 159.549,110.564 159.548,110.864 159.502 C 111.165 159.457,110.871 159.420,110.210 159.421 C 109.550 159.423,109.303 159.460,109.663 159.504 M10.839 170.571 C 10.839 170.736,10.916 171.051,11.011 171.271 C 11.119 171.524,11.183 171.561,11.183 171.371 C 11.183 171.206,11.106 170.891,11.011 170.671 C 10.903 170.418,10.839 170.381,10.839 170.571 M17.918 182.583 C 18.460 183.133,18.949 183.584,19.004 183.584 C 19.059 183.584,18.660 183.133,18.118 182.583 C 17.576 182.032,17.087 181.582,17.032 181.582 C 16.977 181.582,17.376 182.032,17.918 182.583 M348.938 182.332 L 348.248 183.083 348.999 182.393 C 349.698 181.751,349.842 181.582,349.689 181.582 C 349.655 181.582,349.318 181.919,348.938 182.332 M109.259 184.935 C 150.028 184.963,216.739 184.963,257.508 184.935 C 298.276 184.907,264.920 184.884,183.383 184.884 C 101.847 184.884,68.491 184.907,109.259 184.935 M32.432 189.990 C 32.708 190.078,33.158 190.149,33.433 190.147 C 33.883 190.143,33.873 190.127,33.333 189.990 C 32.486 189.774,31.760 189.774,32.432 189.990 M109.176 190.340 C 150.008 190.368,216.765 190.368,257.524 190.340 C 298.283 190.313,264.875 190.290,183.283 190.290 C 101.692 190.290,68.343 190.313,109.176 190.340 " stroke="none" fill="#84accc" fill-rule="evenodd"></path><path id="path2" d="M17.618 17.718 C 17.131 18.213,16.778 18.619,16.834 18.619 C 16.889 18.619,17.332 18.213,17.818 17.718 C 18.304 17.222,18.657 16.817,18.602 16.817 C 18.547 16.817,18.104 17.222,17.618 17.718 M15.727 33.144 C 15.651 33.546,15.630 33.915,15.679 33.964 C 15.728 34.013,15.829 33.724,15.905 33.322 C 15.980 32.920,16.002 32.552,15.953 32.503 C 15.904 32.454,15.802 32.742,15.727 33.144 M351.250 100.100 C 351.250 135.941,351.273 150.603,351.301 132.683 C 351.329 114.762,351.329 85.438,351.301 67.518 C 351.273 49.597,351.250 64.259,351.250 100.100 M208.158 39.187 C 208.736 39.227,209.682 39.227,210.260 39.187 C 210.838 39.146,210.365 39.113,209.209 39.113 C 208.053 39.113,207.580 39.146,208.158 39.187 M217.434 39.911 C 217.480 39.950,217.833 40.040,218.218 40.111 C 218.711 40.202,218.830 40.181,218.619 40.043 C 218.347 39.865,217.236 39.741,217.434 39.911 M220.721 40.641 C 220.941 40.735,221.256 40.813,221.421 40.813 C 221.611 40.813,221.574 40.749,221.321 40.641 C 221.101 40.546,220.786 40.469,220.621 40.469 C 220.431 40.469,220.468 40.532,220.721 40.641 M49.141 40.890 C 49.088 41.028,49.068 45.781,49.097 51.451 L 49.149 61.762 53.704 61.768 L 58.258 61.773 53.754 61.714 L 49.249 61.654 49.249 51.247 L 49.249 40.841 70.854 40.841 C 85.409 40.841,92.492 40.908,92.561 41.046 C 92.617 41.159,92.639 41.136,92.611 40.996 C 92.535 40.623,49.284 40.518,49.141 40.890 M129.129 40.788 C 149.400 40.926,164.518 40.927,164.434 40.791 C 164.383 40.708,154.684 40.662,142.881 40.688 C 131.078 40.714,124.890 40.759,129.129 40.788 M271.563 40.891 C 271.511 41.029,271.492 45.736,271.521 51.351 L 271.575 61.562 271.623 51.202 L 271.672 40.843 292.743 40.791 L 313.814 40.739 292.736 40.690 C 276.023 40.651,271.639 40.692,271.563 40.891 M121.214 51.251 C 121.214 57.032,121.240 59.397,121.271 56.507 C 121.302 53.616,121.302 48.886,121.271 45.996 C 121.240 43.106,121.214 45.470,121.214 51.251 M237.083 44.807 C 237.047 47.831,236.983 48.642,236.787 48.531 C 236.588 48.419,236.587 48.445,236.783 48.656 C 237.213 49.119,237.247 48.794,237.187 44.824 L 237.128 40.941 237.083 44.807 M257.306 59.107 L 257.257 77.273 248.699 77.327 L 240.140 77.382 248.705 77.430 C 255.408 77.467,257.291 77.423,257.365 77.227 C 257.418 77.090,257.437 68.869,257.408 58.959 L 257.355 40.941 257.306 59.107 M194.695 41.549 C 194.194 41.790,194.177 41.818,194.595 41.716 C 195.162 41.577,195.799 41.252,195.495 41.256 C 195.385 41.258,195.025 41.389,194.695 41.549 M211.311 60.060 L 209.910 60.190 211.111 60.210 C 211.772 60.221,212.718 60.158,213.213 60.070 C 214.357 59.867,213.456 59.862,211.311 60.060 M214.667 60.204 C 214.972 60.250,215.422 60.249,215.668 60.201 C 215.915 60.153,215.666 60.116,215.115 60.117 C 214.565 60.119,214.363 60.158,214.667 60.204 M92.492 61.428 C 92.492 61.598,91.272 61.674,88.038 61.708 L 83.584 61.754 87.974 61.812 C 92.067 61.866,93.061 61.763,92.629 61.331 C 92.554 61.256,92.492 61.300,92.492 61.428 M159.660 61.656 L 154.855 61.762 154.854 92.492 L 154.853 123.223 154.905 92.543 L 154.956 61.862 159.648 61.862 C 162.561 61.862,164.388 61.786,164.464 61.662 C 164.533 61.552,164.560 61.482,164.526 61.506 C 164.492 61.531,162.302 61.598,159.660 61.656 M309.459 61.611 L 305.305 61.670 305.355 98.653 L 305.404 135.636 305.455 98.749 L 305.507 61.862 309.498 61.862 C 311.943 61.862,313.538 61.784,313.614 61.662 C 313.682 61.552,313.710 61.482,313.675 61.507 C 313.641 61.532,311.744 61.579,309.459 61.611 M125.375 61.809 L 129.328 61.870 129.380 90.845 L 129.431 119.820 129.430 90.791 L 129.429 61.762 125.425 61.755 L 121.421 61.748 125.375 61.809 M275.875 61.810 L 279.879 61.870 279.930 98.703 L 279.982 135.536 279.981 98.649 L 279.980 61.762 275.926 61.755 L 271.872 61.749 275.875 61.810 M171.271 66.466 C 171.195 66.813,171.175 67.137,171.226 67.188 C 171.277 67.239,171.376 66.993,171.446 66.642 C 171.613 65.807,171.452 65.645,171.271 66.466 M198.098 69.469 C 198.022 69.816,198.002 70.140,198.053 70.191 C 198.104 70.242,198.203 69.996,198.273 69.645 C 198.440 68.810,198.278 68.648,198.098 69.469 M170.621 72.973 C 170.623 73.413,170.664 73.570,170.712 73.321 C 170.760 73.072,170.758 72.712,170.708 72.520 C 170.658 72.329,170.619 72.533,170.621 72.973 M200.993 78.529 C 201.484 79.052,201.911 79.479,201.944 79.479 C 202.094 79.479,201.935 79.300,201.051 78.470 L 200.100 77.578 200.993 78.529 M232.933 86.687 C 233.153 86.781,233.468 86.859,233.634 86.859 C 233.823 86.859,233.786 86.795,233.534 86.687 C 233.313 86.592,232.998 86.515,232.833 86.515 C 232.644 86.515,232.681 86.578,232.933 86.687 M178.378 93.356 C 178.378 93.390,178.671 93.683,179.029 94.007 L 179.680 94.595 179.092 93.944 C 178.544 93.337,178.378 93.201,178.378 93.356 M181.582 96.597 C 181.955 96.982,182.306 97.297,182.361 97.297 C 182.416 97.297,182.155 96.982,181.782 96.597 C 181.408 96.211,181.058 95.896,181.003 95.896 C 180.947 95.896,181.208 96.211,181.582 96.597 M204.505 106.907 C 204.725 107.002,205.040 107.079,205.205 107.079 C 205.394 107.079,205.357 107.015,205.105 106.907 C 204.885 106.812,204.570 106.735,204.404 106.735 C 204.215 106.735,204.252 106.798,204.505 106.907 M214.064 108.647 C 214.257 108.697,214.572 108.697,214.765 108.647 C 214.957 108.596,214.800 108.555,214.414 108.555 C 214.029 108.555,213.871 108.596,214.064 108.647 M171.064 116.765 C 171.011 116.904,170.991 125.891,171.019 136.737 L 171.071 156.456 182.583 156.456 L 194.094 156.456 194.100 152.052 L 194.106 147.648 194.046 152.002 L 193.986 156.356 182.579 156.356 L 171.171 156.356 171.171 136.537 L 171.171 116.717 180.856 116.717 L 190.542 116.717 190.882 117.167 C 191.222 117.616,191.222 117.616,190.933 117.117 L 190.642 116.617 180.901 116.565 C 173.215 116.524,171.140 116.566,171.064 116.765 M58.313 122.122 C 58.313 122.618,58.352 122.820,58.400 122.573 C 58.447 122.325,58.447 121.919,58.400 121.672 C 58.352 121.424,58.313 121.627,58.313 122.122 M264.328 122.523 C 264.328 123.238,264.365 123.531,264.409 123.173 C 264.453 122.815,264.453 122.230,264.409 121.872 C 264.365 121.514,264.328 121.807,264.328 122.523 M239.308 123.223 C 239.309 124.104,239.344 124.440,239.386 123.969 C 239.428 123.498,239.428 122.777,239.385 122.367 C 239.342 121.957,239.307 122.342,239.308 123.223 M154.605 124.224 C 154.607 124.665,154.648 124.821,154.696 124.572 C 154.744 124.323,154.742 123.963,154.692 123.771 C 154.642 123.580,154.603 123.784,154.605 124.224 M235.923 130.981 L 235.335 131.632 235.986 131.044 C 236.592 130.496,236.729 130.330,236.574 130.330 C 236.540 130.330,236.247 130.623,235.923 130.981 M226.326 135.936 C 226.074 136.044,226.037 136.108,226.226 136.108 C 226.391 136.108,226.707 136.031,226.927 135.936 C 227.179 135.827,227.216 135.764,227.027 135.764 C 226.862 135.764,226.547 135.841,226.326 135.936 M271.569 146.046 L 271.572 156.456 292.643 156.458 L 313.714 156.459 292.695 156.407 L 271.675 156.355 271.621 145.995 L 271.566 135.636 271.569 146.046 M102.953 136.675 C 103.146 136.725,103.461 136.725,103.654 136.675 C 103.846 136.624,103.689 136.583,103.303 136.583 C 102.918 136.583,102.760 136.624,102.953 136.675 M109.560 136.675 C 109.752 136.725,110.068 136.725,110.260 136.675 C 110.453 136.624,110.295 136.583,109.910 136.583 C 109.525 136.583,109.367 136.624,109.560 136.675 M217.170 136.678 C 217.419 136.726,217.779 136.724,217.970 136.674 C 218.162 136.624,217.958 136.585,217.518 136.587 C 217.077 136.589,216.920 136.630,217.170 136.678 M221.271 136.680 C 221.574 136.726,222.070 136.726,222.372 136.680 C 222.675 136.634,222.427 136.597,221.822 136.597 C 221.216 136.597,220.968 136.634,221.271 136.680 M104.958 136.880 C 105.262 136.926,105.712 136.925,105.959 136.878 C 106.205 136.830,105.956 136.792,105.405 136.794 C 104.855 136.795,104.653 136.834,104.958 136.880 M107.360 136.880 C 107.664 136.926,108.115 136.925,108.361 136.878 C 108.607 136.830,108.358 136.792,107.808 136.794 C 107.257 136.795,107.056 136.834,107.360 136.880 M66.867 143.006 C 66.867 143.040,67.160 143.333,67.518 143.656 L 68.168 144.244 67.580 143.594 C 67.032 142.987,66.867 142.851,66.867 143.006 M145.036 144.194 L 144.244 145.045 145.095 144.254 C 145.886 143.518,146.038 143.343,145.886 143.343 C 145.854 143.343,145.471 143.726,145.036 144.194 M142.936 146.296 L 141.842 147.447 142.993 146.353 C 144.062 145.337,144.236 145.145,144.087 145.145 C 144.056 145.145,143.538 145.663,142.936 146.296 M253.541 147.598 L 252.953 148.248 253.604 147.660 C 254.210 147.112,254.346 146.947,254.192 146.947 C 254.157 146.947,253.864 147.240,253.541 147.598 M251.739 149.199 L 251.151 149.850 251.802 149.262 C 252.408 148.714,252.544 148.549,252.390 148.549 C 252.355 148.549,252.063 148.841,251.739 149.199 M90.991 157.758 C 91.211 157.852,91.527 157.930,91.692 157.930 C 91.881 157.930,91.844 157.866,91.592 157.758 C 91.371 157.663,91.056 157.586,90.891 157.586 C 90.702 157.586,90.739 157.649,90.991 157.758 M223.774 159.107 C 224.352 159.147,225.298 159.147,225.876 159.107 C 226.454 159.066,225.981 159.033,224.825 159.033 C 223.669 159.033,223.196 159.066,223.774 159.107 M100.050 159.501 C 100.298 159.548,100.703 159.548,100.951 159.501 C 101.199 159.453,100.996 159.414,100.501 159.414 C 100.005 159.414,99.802 159.453,100.050 159.501 M112.265 159.501 C 112.514 159.549,112.874 159.547,113.065 159.497 C 113.257 159.447,113.053 159.408,112.613 159.410 C 112.172 159.412,112.016 159.453,112.265 159.501 M102.352 159.703 C 102.655 159.749,103.151 159.749,103.453 159.703 C 103.756 159.657,103.509 159.620,102.903 159.620 C 102.297 159.620,102.050 159.657,102.352 159.703 M109.560 159.703 C 109.862 159.749,110.358 159.749,110.661 159.703 C 110.963 159.657,110.716 159.620,110.110 159.620 C 109.505 159.620,109.257 159.657,109.560 159.703 M15.656 166.466 C 15.656 166.687,15.728 167.092,15.816 167.367 C 15.943 167.764,15.976 167.785,15.976 167.467 C 15.976 167.247,15.904 166.842,15.816 166.567 C 15.689 166.170,15.656 166.149,15.656 166.466 M10.244 168.869 C 10.241 169.089,10.316 169.449,10.410 169.670 C 10.630 170.180,10.630 169.653,10.410 168.969 C 10.282 168.567,10.249 168.547,10.244 168.869 M345.833 177.427 L 345.245 178.078 345.896 177.490 C 346.502 176.942,346.639 176.777,346.484 176.777 C 346.449 176.777,346.157 177.070,345.833 177.427 M17.718 182.583 C 18.260 183.133,18.749 183.584,18.804 183.584 C 18.859 183.584,18.460 183.133,17.918 182.583 C 17.376 182.032,16.887 181.582,16.832 181.582 C 16.777 181.582,17.175 182.032,17.718 182.583 M348.938 182.533 L 348.248 183.283 348.999 182.593 C 349.698 181.951,349.842 181.782,349.689 181.782 C 349.655 181.782,349.318 182.120,348.938 182.533 M333.233 184.384 C 332.723 184.604,333.249 184.604,333.934 184.384 C 334.336 184.256,334.356 184.223,334.034 184.218 C 333.814 184.215,333.453 184.290,333.233 184.384 " stroke="none" fill="#4c82b8" fill-rule="evenodd"></path><path id="path3" d="M30.237 0.332 C 29.085 0.488,28.094 0.686,28.035 0.772 C 27.976 0.858,27.275 1.049,26.476 1.197 C 25.678 1.345,25.025 1.527,25.025 1.602 C 25.025 1.677,24.530 1.857,23.924 2.002 C 23.318 2.147,22.823 2.341,22.823 2.431 C 22.823 2.522,22.417 2.699,21.922 2.824 C 21.426 2.948,21.021 3.123,21.021 3.211 C 21.021 3.300,20.683 3.482,20.270 3.617 C 19.857 3.752,19.474 3.927,19.419 4.006 C 19.364 4.085,18.959 4.346,18.519 4.585 C 18.078 4.824,17.357 5.237,16.917 5.503 C 16.476 5.768,15.926 6.073,15.693 6.181 C 15.460 6.288,15.215 6.518,15.149 6.691 C 15.082 6.865,14.920 7.007,14.788 7.007 C 14.656 7.007,14.405 7.135,14.231 7.292 C 14.057 7.449,13.410 8.035,12.793 8.594 C 12.177 9.152,11.621 9.610,11.558 9.610 C 11.390 9.610,9.610 11.417,9.610 11.588 C 9.610 11.668,9.151 12.224,8.590 12.823 C 7.079 14.440,7.007 14.528,7.007 14.772 C 7.007 14.895,6.894 15.067,6.756 15.155 C 6.450 15.350,5.448 16.900,4.580 18.519 C 4.344 18.959,4.085 19.364,4.006 19.419 C 3.927 19.474,3.752 19.857,3.617 20.270 C 3.482 20.683,3.296 21.021,3.204 21.021 C 3.111 21.021,2.974 21.314,2.899 21.672 C 2.825 22.030,2.641 22.517,2.490 22.754 C 2.340 22.992,2.113 23.600,1.986 24.106 C 1.858 24.611,1.689 25.025,1.610 25.025 C 1.531 25.025,1.345 25.678,1.197 26.476 C 1.049 27.275,0.860 27.975,0.777 28.032 C -0.443 28.873,-0.443 171.327,0.777 172.169 C 0.860 172.226,1.049 172.925,1.197 173.724 C 1.345 174.522,1.531 175.175,1.610 175.175 C 1.689 175.175,1.858 175.589,1.986 176.095 C 2.113 176.600,2.340 177.208,2.490 177.446 C 2.641 177.684,2.825 178.171,2.899 178.529 C 2.974 178.886,3.111 179.179,3.204 179.179 C 3.296 179.179,3.482 179.517,3.617 179.930 C 3.752 180.343,3.927 180.726,4.006 180.781 C 4.085 180.836,4.344 181.241,4.580 181.682 C 5.448 183.300,6.450 184.850,6.756 185.045 C 6.894 185.133,7.007 185.306,7.007 185.429 C 7.007 185.672,7.079 185.760,8.590 187.377 C 9.151 187.977,9.610 188.533,9.610 188.612 C 9.610 188.783,11.390 190.591,11.558 190.591 C 11.621 190.591,12.177 191.048,12.793 191.607 C 14.346 193.014,14.468 193.111,14.865 193.254 C 15.058 193.324,15.215 193.476,15.215 193.592 C 15.215 193.709,15.418 193.896,15.666 194.009 C 15.913 194.122,16.476 194.432,16.917 194.698 C 17.357 194.963,18.078 195.376,18.519 195.615 C 18.959 195.854,19.364 196.115,19.419 196.194 C 19.474 196.273,19.857 196.449,20.270 196.583 C 20.683 196.718,21.021 196.900,21.021 196.989 C 21.021 197.077,21.426 197.252,21.922 197.377 C 22.417 197.501,22.823 197.678,22.823 197.769 C 22.823 197.860,23.318 198.053,23.924 198.198 C 24.530 198.343,25.025 198.524,25.025 198.598 C 25.025 198.673,25.678 198.856,26.476 199.003 C 27.275 199.151,27.975 199.340,28.032 199.423 C 28.579 200.216,25.364 200.200,183.415 200.200 C 341.439 200.200,338.209 200.216,338.732 199.420 C 338.791 199.331,339.447 199.144,340.190 199.006 C 340.933 198.867,341.542 198.688,341.542 198.608 C 341.542 198.528,342.037 198.343,342.643 198.198 C 343.248 198.053,343.744 197.869,343.744 197.790 C 343.744 197.710,344.149 197.543,344.645 197.418 C 345.140 197.294,345.546 197.110,345.546 197.010 C 345.546 196.910,345.817 196.769,346.148 196.696 C 346.480 196.623,346.863 196.457,346.999 196.326 C 347.136 196.196,347.630 195.919,348.098 195.712 C 348.566 195.504,348.949 195.275,348.949 195.202 C 348.949 195.129,349.264 194.946,349.650 194.795 C 350.035 194.644,350.350 194.444,350.350 194.352 C 350.350 194.260,350.576 194.099,350.851 193.994 C 351.126 193.889,351.351 193.711,351.351 193.599 C 351.351 193.486,351.464 193.393,351.602 193.393 C 351.834 193.393,352.160 193.159,353.606 191.953 C 354.604 191.120,357.758 188.026,357.758 187.879 C 357.758 187.800,358.073 187.438,358.458 187.074 C 358.844 186.711,359.163 186.340,359.167 186.250 C 359.172 186.160,359.442 185.774,359.768 185.393 C 360.094 185.012,360.360 184.593,360.360 184.463 C 360.360 184.333,360.495 184.175,360.661 184.112 C 360.826 184.048,360.961 183.898,360.961 183.777 C 360.961 183.656,361.186 183.262,361.461 182.901 C 361.737 182.540,361.962 182.140,361.962 182.013 C 361.962 181.886,362.038 181.782,362.130 181.782 C 362.223 181.782,362.417 181.421,362.563 180.981 C 362.708 180.541,362.888 180.180,362.963 180.180 C 363.038 180.180,363.218 179.820,363.363 179.379 C 363.509 178.939,363.692 178.579,363.771 178.579 C 363.850 178.579,364.082 177.993,364.287 177.277 C 364.492 176.562,364.716 175.976,364.785 175.976 C 364.854 175.976,365.025 175.435,365.165 174.775 C 365.305 174.114,365.487 173.574,365.568 173.574 C 365.650 173.574,365.831 172.830,365.971 171.922 C 366.111 171.014,366.293 170.225,366.375 170.170 C 367.279 169.569,367.279 30.632,366.375 30.030 C 366.293 29.975,366.111 29.187,365.971 28.278 C 365.831 27.370,365.650 26.627,365.568 26.627 C 365.487 26.627,365.305 26.086,365.165 25.425 C 365.025 24.765,364.850 24.224,364.777 24.224 C 364.704 24.224,364.477 23.639,364.272 22.923 C 364.067 22.207,363.838 21.622,363.764 21.622 C 363.689 21.622,363.509 21.261,363.363 20.821 C 363.218 20.380,363.038 20.020,362.963 20.020 C 362.888 20.020,362.708 19.660,362.563 19.219 C 362.417 18.779,362.223 18.418,362.130 18.418 C 362.038 18.418,361.962 18.314,361.962 18.187 C 361.962 18.060,361.737 17.660,361.461 17.300 C 361.186 16.939,360.961 16.544,360.961 16.423 C 360.961 16.303,360.826 16.152,360.661 16.088 C 360.495 16.025,360.360 15.867,360.360 15.737 C 360.360 15.607,360.094 15.188,359.768 14.807 C 359.442 14.426,359.172 14.040,359.167 13.951 C 359.163 13.861,358.844 13.490,358.458 13.126 C 358.073 12.763,357.758 12.401,357.758 12.321 C 357.758 12.174,354.604 9.080,353.606 8.248 C 352.160 7.041,351.834 6.807,351.602 6.807 C 351.464 6.807,351.351 6.714,351.351 6.602 C 351.351 6.489,351.126 6.311,350.851 6.206 C 350.576 6.102,350.350 5.940,350.350 5.848 C 350.350 5.756,350.035 5.557,349.650 5.405 C 349.264 5.254,348.949 5.071,348.949 4.998 C 348.949 4.925,348.566 4.696,348.098 4.488 C 347.630 4.281,347.136 4.004,346.999 3.874 C 346.863 3.743,346.480 3.577,346.148 3.504 C 345.817 3.431,345.546 3.290,345.546 3.190 C 345.546 3.090,345.140 2.907,344.645 2.782 C 344.149 2.657,343.744 2.490,343.744 2.411 C 343.744 2.331,343.248 2.147,342.643 2.002 C 342.037 1.857,341.542 1.672,341.542 1.592 C 341.542 1.512,340.933 1.333,340.190 1.195 C 339.447 1.056,338.791 0.869,338.732 0.780 C 338.674 0.691,337.565 0.479,336.270 0.309 C 332.843 -0.140,33.552 -0.118,30.237 0.332 M334.234 10.092 C 340.498 11.112,346.006 14.223,350.507 19.285 C 352.234 21.226,354.809 25.669,355.392 27.709 C 355.520 28.160,355.692 28.619,355.773 28.729 C 355.914 28.921,356.431 31.151,356.771 33.033 C 356.983 34.211,356.983 165.990,356.771 167.167 C 356.431 169.049,355.914 171.279,355.773 171.471 C 355.692 171.582,355.512 172.068,355.373 172.553 C 355.006 173.834,353.092 177.485,352.056 178.879 C 350.533 180.928,350.283 181.230,349.149 182.387 C 346.191 185.405,341.457 188.290,337.774 189.319 C 334.003 190.372,347.043 190.290,183.183 190.290 L 32.332 190.290 30.330 189.730 C 19.627 186.736,11.666 178.137,10.089 167.868 C 9.742 165.608,9.675 35.122,10.020 32.733 C 11.638 21.513,21.430 11.640,32.533 10.033 C 34.652 9.726,332.344 9.785,334.234 10.092 M35.335 15.555 C 32.148 15.846,28.731 16.951,25.826 18.630 C 20.974 21.433,17.079 27.110,15.876 33.133 C 15.533 34.845,15.516 38.177,15.516 100.200 L 15.516 165.465 15.956 167.467 C 16.591 170.349,17.643 172.890,19.089 175.030 C 22.342 179.843,26.484 182.662,32.733 184.314 C 34.336 184.738,327.822 185.014,331.527 184.595 C 341.878 183.424,349.724 176.057,350.939 166.367 C 351.236 164.000,351.236 36.200,350.939 33.834 C 349.855 25.191,343.272 18.188,334.134 15.958 L 332.432 15.542 184.284 15.512 C 102.803 15.495,35.776 15.514,35.335 15.555 M214.295 39.442 C 216.474 39.664,218.405 39.922,218.587 40.016 C 218.770 40.109,219.324 40.246,219.820 40.321 C 220.926 40.487,224.633 41.644,226.326 42.352 C 230.050 43.908,232.347 45.194,235.088 47.255 L 236.937 48.646 236.991 44.844 L 237.046 41.041 247.253 41.041 L 257.460 41.041 257.408 59.209 L 257.357 77.377 248.802 77.430 L 240.247 77.482 238.740 75.209 C 233.670 67.564,228.231 63.413,220.120 60.998 C 216.478 59.913,209.806 59.912,206.659 60.995 C 194.182 65.288,195.729 79.998,208.909 82.391 C 213.032 83.140,218.406 84.009,222.422 84.577 C 223.579 84.741,224.885 84.966,225.325 85.079 C 225.766 85.191,226.937 85.415,227.928 85.575 C 236.314 86.934,242.607 89.173,247.808 92.647 C 253.113 96.190,258.027 101.576,260.453 106.507 C 260.805 107.222,261.167 107.949,261.257 108.122 C 268.205 121.498,263.276 140.770,250.456 150.350 C 250.088 150.626,249.688 150.941,249.568 151.051 C 246.603 153.767,238.884 157.156,232.933 158.355 C 226.034 159.745,219.086 159.261,210.811 156.815 C 207.701 155.895,201.387 152.590,196.591 149.370 L 194.202 147.766 194.148 152.111 L 194.094 156.456 182.583 156.456 L 171.071 156.456 171.071 136.537 L 171.071 116.617 180.879 116.617 L 190.687 116.617 191.135 117.417 C 191.382 117.858,191.645 118.353,191.721 118.519 C 191.924 118.965,194.533 122.867,194.799 123.123 C 194.856 123.178,195.498 123.944,196.227 124.825 C 205.566 136.118,220.557 139.875,232.017 133.796 C 234.629 132.410,237.298 129.816,238.260 127.728 C 238.488 127.232,238.779 126.610,238.907 126.345 C 239.048 126.052,239.139 124.798,239.138 123.142 L 239.138 120.420 238.238 118.722 C 236.097 114.684,231.404 111.547,225.780 110.394 C 223.706 109.969,218.375 109.148,214.214 108.613 C 209.714 108.035,207.398 107.617,204.204 106.807 C 203.599 106.654,202.518 106.384,201.802 106.208 C 201.086 106.032,199.825 105.708,198.999 105.488 C 198.173 105.268,197.137 104.998,196.697 104.887 C 190.698 103.385,183.809 99.209,179.379 94.391 C 178.774 93.732,178.229 93.148,178.169 93.093 C 177.214 92.220,173.848 86.891,173.467 85.649 C 173.388 85.394,173.252 85.094,173.164 84.983 C 172.592 84.262,171.317 79.787,170.966 77.271 C 167.862 55.010,188.682 36.833,214.295 39.442 M92.593 51.251 L 92.593 61.762 88.138 61.816 L 83.684 61.870 83.686 90.544 C 83.688 122.175,83.646 121.071,84.937 124.124 C 87.741 130.755,94.729 135.558,103.003 136.539 C 114.791 137.937,125.200 132.480,128.691 123.072 L 129.229 121.622 129.284 91.742 L 129.338 61.862 125.546 61.862 C 123.461 61.862,121.612 61.807,121.438 61.740 C 121.155 61.632,121.121 60.519,121.121 51.234 L 121.121 40.848 121.572 40.740 C 121.819 40.680,131.572 40.656,143.243 40.686 L 164.464 40.741 164.464 51.251 L 164.464 61.762 159.713 61.815 L 154.962 61.869 154.909 93.047 C 154.858 122.495,154.834 124.324,154.484 126.026 C 153.828 129.214,153.164 131.334,152.023 133.890 C 151.764 134.471,151.552 134.979,151.552 135.019 C 151.552 135.208,149.659 138.447,149.514 138.505 C 149.424 138.542,149.349 138.671,149.349 138.793 C 149.349 139.689,143.821 145.836,140.864 148.228 C 138.482 150.154,132.631 153.954,132.047 153.954 C 131.989 153.954,131.308 154.263,130.532 154.640 C 129.756 155.018,128.786 155.435,128.375 155.567 C 127.964 155.700,127.538 155.874,127.427 155.954 C 127.317 156.035,126.326 156.392,125.225 156.748 C 124.124 157.104,122.863 157.513,122.422 157.656 C 120.500 158.284,116.200 159.078,112.112 159.561 C 110.171 159.790,102.842 159.790,100.901 159.561 C 95.470 158.920,92.250 158.220,87.788 156.712 C 86.397 156.243,84.155 155.387,83.698 155.152 C 83.525 155.063,82.843 154.739,82.182 154.431 C 75.315 151.234,69.819 146.772,64.684 140.226 C 64.164 139.563,61.997 135.792,61.459 134.614 C 58.158 127.383,58.266 128.821,58.262 92.046 L 58.258 61.869 53.704 61.816 L 49.149 61.762 49.097 51.451 C 49.068 45.781,49.088 41.028,49.141 40.890 C 49.218 40.690,53.679 40.649,70.915 40.690 L 92.593 40.741 92.593 51.251 M313.665 51.201 L 313.614 61.762 309.560 61.816 L 305.506 61.870 305.506 98.703 L 305.506 135.536 309.610 135.536 L 313.714 135.536 313.714 146.047 L 313.714 156.558 292.643 156.507 L 271.572 156.456 271.572 146.046 L 271.572 135.636 275.726 135.582 L 279.880 135.527 279.880 98.695 L 279.880 61.862 275.916 61.862 C 273.100 61.862,271.882 61.792,271.712 61.622 C 271.450 61.360,271.346 41.033,271.605 40.774 C 271.678 40.701,281.184 40.641,292.728 40.641 L 313.717 40.641 313.665 51.201 M385.789 174.511 C 385.295 174.561,384.845 174.669,384.788 174.751 C 384.731 174.833,384.167 175.013,383.534 175.152 C 382.900 175.291,382.382 175.473,382.382 175.558 C 382.382 175.642,382.027 175.829,381.592 175.973 C 381.157 176.116,380.755 176.356,380.697 176.505 C 380.640 176.655,380.458 176.777,380.294 176.777 C 380.129 176.777,379.898 176.957,379.780 177.177 C 379.662 177.397,379.456 177.579,379.322 177.581 C 379.062 177.585,378.178 178.436,378.178 178.684 C 378.178 178.766,377.975 179.038,377.728 179.288 C 377.135 179.885,376.937 180.160,376.577 180.881 C 376.412 181.211,376.231 181.527,376.175 181.582 C 375.988 181.766,375.576 183.107,375.576 183.531 C 375.576 183.762,375.463 183.988,375.325 184.034 C 374.983 184.148,374.965 190.337,375.307 190.548 C 375.434 190.627,375.603 191.034,375.681 191.452 C 375.760 191.870,375.944 192.332,376.090 192.478 C 376.237 192.625,376.418 192.988,376.492 193.285 C 376.567 193.583,376.752 193.874,376.903 193.931 C 377.054 193.989,377.177 194.160,377.177 194.311 C 377.177 194.689,379.785 197.309,380.335 197.483 C 380.580 197.561,380.781 197.703,380.781 197.798 C 380.781 197.894,381.096 198.086,381.481 198.225 C 381.867 198.365,382.182 198.547,382.182 198.631 C 382.182 198.715,382.565 198.881,383.033 199.000 C 383.501 199.119,384.100 199.325,384.365 199.458 C 385.047 199.801,390.626 199.794,390.741 199.449 C 390.787 199.312,391.013 199.199,391.244 199.199 C 391.668 199.199,393.008 198.787,393.193 198.599 C 393.248 198.544,393.564 198.363,393.894 198.198 C 394.224 198.033,394.567 197.786,394.655 197.648 C 394.743 197.510,394.923 197.396,395.055 197.394 C 395.187 197.392,395.507 197.167,395.767 196.893 C 396.026 196.620,396.319 196.396,396.417 196.396 C 396.516 196.396,396.597 196.304,396.597 196.190 C 396.597 196.077,396.912 195.694,397.297 195.341 C 397.683 194.987,397.998 194.581,397.998 194.440 C 397.998 194.298,398.120 194.135,398.270 194.077 C 398.419 194.020,398.659 193.617,398.802 193.183 C 398.946 192.748,399.132 192.392,399.215 192.392 C 400.203 192.392,400.193 182.551,399.205 181.782 C 399.134 181.727,398.958 181.389,398.813 181.031 C 398.668 180.673,398.477 180.380,398.388 180.380 C 398.298 180.380,398.170 180.205,398.102 179.991 C 397.948 179.507,395.423 176.887,394.945 176.715 C 394.752 176.646,394.595 176.511,394.595 176.415 C 394.595 176.319,394.234 176.121,393.794 175.976 C 393.353 175.831,392.993 175.642,392.993 175.558 C 392.993 175.473,392.475 175.291,391.842 175.152 C 391.209 175.013,390.645 174.834,390.588 174.753 C 390.459 174.566,386.978 174.391,385.789 174.511 M390.556 177.110 C 390.630 177.223,390.961 177.380,391.291 177.459 C 391.622 177.538,392.228 177.822,392.638 178.090 C 393.049 178.359,393.434 178.579,393.494 178.579 C 394.239 178.579,397.397 182.998,397.397 184.041 C 397.397 184.211,397.509 184.388,397.645 184.434 C 398.014 184.556,398.000 189.541,397.631 189.769 C 397.484 189.860,397.375 189.993,397.389 190.065 C 397.453 190.388,396.994 191.634,396.614 192.167 C 396.384 192.490,396.196 192.820,396.196 192.900 C 396.196 193.132,393.668 195.596,393.429 195.596 C 393.310 195.596,393.141 195.717,393.053 195.865 C 392.965 196.013,392.442 196.299,391.892 196.500 C 391.341 196.701,390.789 196.943,390.664 197.036 C 389.899 197.613,385.281 197.520,384.315 196.909 C 384.078 196.759,383.592 196.575,383.234 196.501 C 382.877 196.426,382.517 196.259,382.434 196.130 C 382.350 196.001,382.018 195.760,381.694 195.595 C 380.803 195.141,378.979 193.134,378.979 192.608 C 378.979 192.482,378.849 192.330,378.691 192.269 C 378.532 192.208,378.343 191.873,378.271 191.525 C 378.198 191.176,377.990 190.666,377.808 190.390 C 377.402 189.775,377.326 184.962,377.710 184.166 C 377.838 183.901,378.229 183.076,378.578 182.332 C 378.927 181.589,379.297 180.981,379.399 180.981 C 379.502 180.981,379.731 180.677,379.908 180.305 C 380.094 179.915,380.515 179.494,380.906 179.308 C 381.278 179.130,381.582 178.894,381.582 178.782 C 381.582 178.670,381.674 178.579,381.786 178.579 C 381.899 178.579,382.328 178.355,382.740 178.082 C 383.153 177.810,383.781 177.528,384.137 177.457 C 384.493 177.386,384.785 177.254,384.785 177.165 C 384.785 176.766,390.297 176.713,390.556 177.110 M382.273 179.831 C 382.220 179.969,382.201 183.325,382.230 187.288 L 382.282 194.494 383.634 194.554 L 384.985 194.613 384.985 191.501 L 384.985 188.388 387.276 188.388 C 390.376 188.388,390.654 188.599,390.757 191.022 C 390.797 191.941,390.910 192.778,391.010 192.883 C 391.110 192.987,391.191 193.273,391.191 193.517 C 391.191 194.487,391.354 194.595,392.820 194.595 C 394.170 194.595,394.870 194.216,394.246 193.824 C 393.858 193.580,393.596 192.097,393.595 190.140 C 393.594 188.973,393.513 188.188,393.393 188.188 C 393.283 188.188,393.193 188.058,393.193 187.899 C 393.193 187.740,393.005 187.478,392.775 187.317 C 392.360 187.027,392.362 187.020,393.025 186.386 C 393.756 185.687,394.090 182.048,393.443 181.832 C 393.306 181.786,393.193 181.643,393.193 181.514 C 393.193 181.113,392.054 180.183,391.403 180.052 C 391.062 179.984,390.734 179.850,390.675 179.754 C 390.493 179.460,382.387 179.534,382.273 179.831 M390.507 182.871 C 390.872 183.371,390.862 184.774,390.489 185.266 C 390.140 185.728,388.888 185.958,386.637 185.974 L 384.985 185.986 384.985 184.168 L 384.985 182.351 387.604 182.417 C 389.922 182.475,390.256 182.527,390.507 182.871 " stroke="none" fill="#04549c" fill-rule="evenodd"></path><path id="path4" d="M164.457 51.251 C 164.457 56.922,164.483 59.242,164.514 56.406 C 164.546 53.571,164.546 48.931,164.514 46.096 C 164.483 43.261,164.457 45.581,164.457 51.251 M92.585 51.251 C 92.585 56.812,92.611 59.087,92.642 56.306 C 92.674 53.526,92.674 48.976,92.642 46.196 C 92.611 43.416,92.585 45.691,92.585 51.251 M58.356 91.592 C 58.356 107.998,58.379 114.680,58.408 106.441 C 58.437 98.201,58.437 84.778,58.408 76.611 C 58.379 68.444,58.356 75.185,58.356 91.592 M253.253 97.160 C 253.253 97.194,253.546 97.487,253.904 97.810 L 254.555 98.398 253.967 97.748 C 253.418 97.141,253.253 97.005,253.253 97.160 M88.088 129.392 C 88.088 129.426,88.381 129.719,88.739 130.043 L 89.389 130.631 88.801 129.980 C 88.253 129.373,88.088 129.237,88.088 129.392 M218.764 136.881 C 219.120 136.925,219.750 136.926,220.166 136.883 C 220.581 136.840,220.290 136.803,219.520 136.802 C 218.749 136.802,218.409 136.837,218.764 136.881 M105.155 159.708 C 105.898 159.747,107.115 159.747,107.858 159.708 C 108.601 159.669,107.993 159.638,106.507 159.638 C 105.020 159.638,104.412 159.669,105.155 159.708 " stroke="none" fill="#749cc4" fill-rule="evenodd"></path></g></svg>